<svg width="105" height="42" viewBox="0 0 105 42" fill="none" xmlns="http://www.w3.org/2000/svg">
<g clip-path="url(#clip0_47_2)">
<path d="M29.3125 3.59375C29.375 3.875 29.5312 4.09375 29.7812 4.25L29.8516 5.02344C29.8672 5.14844 29.8828 5.28125 29.8984 5.42188C29.9141 5.54688 29.9375 5.67188 29.9688 5.79688V6.19531C29.9688 6.33594 30.0156 6.45312 30.1094 6.54688C30.0156 7.67188 29.8672 8.57031 29.6641 9.24219C29.5547 9.58594 29.4531 9.95312 29.3594 10.3438C29.2812 10.7344 29.2031 11.1406 29.125 11.5625C29.1094 11.6719 29.0703 11.8203 29.0078 12.0078C28.9609 12.1484 28.9375 12.2969 28.9375 12.4531C28.9062 12.6094 28.8984 12.7188 28.9141 12.7812C28.9297 12.8438 28.9219 12.9531 28.8906 13.1094C28.8125 13.3281 28.7188 13.5312 28.6094 13.7188C28.5469 13.8281 28.4844 13.9453 28.4219 14.0703C28.3594 14.1797 28.2969 14.2969 28.2344 14.4219C27.7344 15.3281 27.1797 16.1875 26.5703 17C25.9609 17.8125 25.2031 18.4375 24.2969 18.875C23.9219 19.0469 23.6328 19.1953 23.4297 19.3203C23.2109 19.4453 22.9219 19.5469 22.5625 19.625C22.3438 19.75 22.0859 19.8828 21.7891 20.0234C21.4922 20.1641 21.2031 20.2656 20.9219 20.3281C20.8125 20.3906 20.6875 20.4219 20.5469 20.4219C20.4531 20.4219 20.3281 20.4375 20.1719 20.4688L19.7734 20.6328C19.7109 20.6484 19.6562 20.6719 19.6094 20.7031C19.5625 20.7188 19.5156 20.7344 19.4688 20.75C19.2344 20.8125 19.0469 20.8438 18.9062 20.8438C18.6875 20.8125 18.5312 20.6797 18.4375 20.4453C18.3438 20.2109 18.2969 19.9688 18.2969 19.7188C18.1562 19.5781 18.0156 19.4688 17.875 19.3906C17.7344 19.3125 17.625 19.1406 17.5469 18.875C17.4531 18.5312 17.3906 18.3438 17.3594 18.3125C17.3125 18.2656 17.2812 18.2188 17.2656 18.1719C17.1094 17.7344 17.0547 17.2422 17.1016 16.6953C17.1484 16.1484 17.2656 15.7031 17.4531 15.3594C17.5312 15.1875 17.625 15.0703 17.7344 15.0078C17.875 14.9297 17.9531 14.8125 17.9688 14.6562C18.2031 14.5156 18.4219 14.3516 18.625 14.1641C18.8281 13.9766 19.0469 13.8125 19.2812 13.6719C19.5625 13.1719 19.9219 12.7656 20.3594 12.4531C20.75 12.1875 21.1406 11.8906 21.5312 11.5625C21.6719 11.4531 21.7734 11.3438 21.8359 11.2344C21.9297 11.0938 22.0469 10.9688 22.1875 10.8594C22.2969 10.75 22.4062 10.6641 22.5156 10.6016C22.6719 10.5078 22.7812 10.4375 22.8438 10.3906L23.2188 10.0156C23.3281 9.95312 23.4531 9.92188 23.5938 9.92188C23.7344 9.92188 23.8594 9.89062 23.9688 9.82812C24.4062 9.76562 24.625 9.78906 24.625 9.89844V10.25C24.3438 10.4219 23.9375 10.5781 23.4062 10.7188C23.3281 10.9844 23.1953 11.1719 23.0078 11.2812C22.8516 11.375 22.6719 11.5469 22.4688 11.7969C22.4062 11.875 22.3438 11.9531 22.2812 12.0312C22.2344 12.0938 22.1953 12.1641 22.1641 12.2422C22.1016 12.3672 21.9531 12.4688 21.7188 12.5469C21.5469 12.9531 21.3516 13.2734 21.1328 13.5078C20.8828 13.7734 20.6562 14.0469 20.4531 14.3281C20.4531 14.6719 20.3828 14.9609 20.2422 15.1953C20.1016 15.4297 19.9531 15.6719 19.7969 15.9219C19.7344 16.0469 19.6719 16.1719 19.6094 16.2969C19.5469 16.4219 19.5156 16.5156 19.5156 16.5781C19.5312 16.6094 19.5469 16.6484 19.5625 16.6953C19.5938 16.7266 19.6172 16.7734 19.6328 16.8359C19.6797 16.9609 19.7344 17.0625 19.7969 17.1406C19.8438 17.2031 19.9141 17.2812 20.0078 17.375C20.1016 17.4688 20.1562 17.5469 20.1719 17.6094C20.9219 17.1406 21.6641 16.6719 22.3984 16.2031C23.1328 15.7344 23.7656 15.1719 24.2969 14.5156C24.4531 14.2344 24.6016 13.9609 24.7422 13.6953C24.8828 13.4297 25.0312 13.1406 25.1875 12.8281C25.25 12.5156 25.3438 12.2188 25.4688 11.9375C25.5938 11.6562 25.7344 11.375 25.8906 11.0938C26.0469 10.7812 26.1875 10.4688 26.3125 10.1562C26.4375 9.84375 26.5156 9.51562 26.5469 9.17188C26.5625 9.04688 26.5703 8.92188 26.5703 8.79688C26.5859 8.65625 26.5859 8.50781 26.5703 8.35156C26.5547 8.07031 26.5938 7.84375 26.6875 7.67188C26.625 7.5 26.625 7.28906 26.6875 7.03906C26.75 6.82031 26.7656 6.5625 26.7344 6.26562C26.5156 5.79688 26.2969 5.52344 26.0781 5.44531C25.8594 5.36719 25.625 5.29688 25.375 5.23438C25.125 5.39062 24.8594 5.5625 24.5781 5.75C24.2969 5.9375 24.0312 6.14062 23.7812 6.35938C23.6875 6.45312 23.5938 6.54688 23.5 6.64062C23.4062 6.73438 23.3047 6.82812 23.1953 6.92188C22.9766 7.10938 22.8125 7.32812 22.7031 7.57812C22.2969 8.01562 21.9688 8.39844 21.7188 8.72656C21.4688 9.05469 21.2188 9.39062 20.9688 9.73438C20.4844 10.0469 20 10.4219 19.5156 10.8594C19.0312 11.2969 18.5469 11.6719 18.0625 11.9844C17.6562 12.2969 17.2578 12.6172 16.8672 12.9453C16.4766 13.2734 16.1094 13.6094 15.7656 13.9531C15.6094 14.125 15.4453 14.2891 15.2734 14.4453C15.1172 14.6016 14.9531 14.7578 14.7812 14.9141C14.4219 15.2266 14.1094 15.5469 13.8438 15.875C13.3594 16.5469 12.8125 17.25 12.2031 17.9844C12.0312 18.1562 11.8906 18.3281 11.7812 18.5C11.6719 18.6875 11.5312 18.875 11.3594 19.0625C11.2031 19.2188 11.0547 19.3906 10.9141 19.5781C10.8516 19.6719 10.7812 19.7656 10.7031 19.8594C10.6406 19.9375 10.5781 20.0156 10.5156 20.0938C10.4531 20.2031 10.375 20.3672 10.2812 20.5859C10.1875 20.8047 10.1094 20.9688 10.0469 21.0781C9.73438 21.4531 9.42969 21.8359 9.13281 22.2266C8.83594 22.6172 8.57812 23.0625 8.35938 23.5625C8 24.0312 7.71094 24.5234 7.49219 25.0391C7.38281 25.2891 7.27344 25.5312 7.16406 25.7656C7.05469 26 6.9375 26.2344 6.8125 26.4688C6.75 26.8906 6.63281 27.2812 6.46094 27.6406C6.28906 28 6.17188 28.3906 6.10938 28.8125C6.09375 28.9219 6.07031 29.0312 6.03906 29.1406C6.00781 29.2344 5.97656 29.3359 5.94531 29.4453C5.91406 29.5547 5.88281 29.6641 5.85156 29.7734C5.82031 29.8828 5.79688 30 5.78125 30.125C5.71875 30.3125 5.6875 30.5391 5.6875 30.8047C5.6875 31.0547 5.65625 31.2656 5.59375 31.4375C5.40625 31.8281 5.3125 32.1172 5.3125 32.3047C5.3125 32.4766 5.23438 32.6094 5.07812 32.7031C5.17188 32.9531 5.25781 33.1719 5.33594 33.3594C5.41406 33.5469 5.53125 33.7344 5.6875 33.9219C5.76562 34.0469 5.85938 34.1562 5.96875 34.25C6.07812 34.3438 6.17188 34.4531 6.25 34.5781C6.375 34.8906 6.47656 35.0781 6.55469 35.1406C6.63281 35.2031 6.73438 35.2812 6.85938 35.375C6.95312 35.4375 7.07031 35.5156 7.21094 35.6094C7.35156 35.7031 7.48438 35.7656 7.60938 35.7969C7.78125 35.8594 7.94531 35.8828 8.10156 35.8672C8.21094 35.8516 8.375 35.8594 8.59375 35.8906C8.79688 35.8906 8.9375 35.8984 9.01562 35.9141C9.09375 35.9297 9.23438 35.9219 9.4375 35.8906C9.6875 35.8281 9.98438 35.7578 10.3281 35.6797C10.6719 35.6016 10.9844 35.5312 11.2656 35.4688C11.7031 35.3438 12.1328 35.2188 12.5547 35.0938C12.9766 34.9688 13.375 34.8281 13.75 34.6719C14.1562 34.5 14.4844 34.2812 14.7344 34.0156C14.9844 33.75 15.2656 33.5312 15.5781 33.3594C16.0781 32.9844 16.4297 32.6797 16.6328 32.4453C16.8516 32.2109 17.0781 32.0156 17.3125 31.8594C17.5312 31.5781 17.6562 31.4375 17.6875 31.4375C17.7188 31.4375 17.75 31.4219 17.7812 31.3906C17.8906 31.2656 17.9922 31.1484 18.0859 31.0391C18.1953 30.9297 18.3047 30.8203 18.4141 30.7109C18.5234 30.6016 18.625 30.4922 18.7188 30.3828C18.8281 30.2734 18.9375 30.1562 19.0469 30.0312C19.4219 29.8594 19.7031 29.6562 19.8906 29.4219C20.1562 29.3281 20.3672 29.2031 20.5234 29.0469C20.6016 28.9688 20.6875 28.8906 20.7812 28.8125C20.875 28.7344 20.9688 28.6562 21.0625 28.5781C21.2969 28.4062 21.4688 28.2656 21.5781 28.1562C21.7031 28.0312 21.8203 27.9062 21.9297 27.7812C22.0391 27.6562 22.1562 27.5156 22.2812 27.3594C22.3594 27.2812 22.4531 27.2109 22.5625 27.1484C22.7031 27.0547 22.8281 26.9375 22.9375 26.7969C22.9844 26.7344 23.0469 26.6094 23.125 26.4219C23.1875 26.2656 23.2969 26.1875 23.4531 26.1875C23.6406 26.1562 23.8438 26.2422 24.0625 26.4453C24.2812 26.6484 24.3906 26.8594 24.3906 27.0781C24.0938 27.5469 23.9375 27.8125 23.9219 27.875C23.6875 28.2188 23.4531 28.5156 23.2188 28.7656C23.0938 28.9062 22.9688 29.0547 22.8438 29.2109C22.7188 29.3672 22.5938 29.5312 22.4688 29.7031C22.2188 29.9844 21.9688 30.2734 21.7188 30.5703C21.4688 30.8672 21.2344 31.1875 21.0156 31.5312C20.8281 31.8438 20.5859 32.1484 20.2891 32.4453C20.1641 32.5703 20.0312 32.7109 19.8906 32.8672C19.75 33.0078 19.6094 33.1562 19.4688 33.3125C19.1094 33.7031 18.7109 34.1094 18.2734 34.5312C17.8984 34.875 17.5312 35.3281 17.1719 35.8906C16.9688 36.0938 16.8125 36.2422 16.7031 36.3359C16.5938 36.4297 16.4375 36.5781 16.2344 36.7812C16.0625 36.875 15.9141 36.9766 15.7891 37.0859C15.6641 37.1953 15.5156 37.2969 15.3438 37.3906C15.0312 37.5 14.7109 37.6328 14.3828 37.7891C14.0703 37.9297 13.7578 38.0859 13.4453 38.2578C12.7734 38.6328 12.0625 38.9219 11.3125 39.125C11.1406 39.1719 10.9609 39.2188 10.7734 39.2656C10.6016 39.3281 10.4297 39.3906 10.2578 39.4531C9.91406 39.5625 9.51562 39.6094 9.0625 39.5938C8.96875 39.5625 8.89062 39.5469 8.82812 39.5469C8.76562 39.5469 8.67188 39.5312 8.54688 39.5C8.39062 39.4844 8.19531 39.4219 7.96094 39.3125C7.72656 39.2031 7.5 39.1406 7.28125 39.125C7.125 39.125 6.98438 39.1484 6.85938 39.1953C6.75 39.2422 6.60938 39.2656 6.4375 39.2656C5.75 38.8281 5.19531 38.4609 4.77344 38.1641C4.35156 37.8672 3.96875 37.5156 3.625 37.1094C3.32812 36.6562 3.15625 36.3984 3.10938 36.3359C3.0625 36.2734 3.00781 36.2109 2.94531 36.1484C2.89844 36.0859 2.84375 36.0156 2.78125 35.9375C2.53125 35.5781 2.28125 35.1562 2.03125 34.6719C2.03125 34.5625 1.99219 34.4531 1.91406 34.3438C1.86719 34.2812 1.79688 34.1719 1.70312 34.0156C1.54688 33.5 1.46875 32.9453 1.46875 32.3516C1.46875 32.0547 1.46875 31.7656 1.46875 31.4844C1.48438 31.2031 1.5 30.9219 1.51562 30.6406C1.53125 30.4844 1.53125 30.3359 1.51562 30.1953C1.48438 30.0078 1.46875 29.8594 1.46875 29.75C1.46875 29.5 1.51562 29.2344 1.60938 28.9531C1.65625 28.8125 1.69531 28.6797 1.72656 28.5547C1.77344 28.4141 1.8125 28.2812 1.84375 28.1562C2.03125 27.4688 2.24219 26.8203 2.47656 26.2109C2.71094 25.6016 2.98438 25.0312 3.29688 24.5C3.57812 24.1094 3.78906 23.75 3.92969 23.4219C4.00781 23.25 4.07812 23.0781 4.14062 22.9062C4.21875 22.7188 4.29688 22.5312 4.375 22.3438C4.53125 22 4.6875 21.6641 4.84375 21.3359C5 21.0078 5.17188 20.6719 5.35938 20.3281C5.51562 20.0156 5.67969 19.7031 5.85156 19.3906C6.02344 19.0781 6.25 18.7969 6.53125 18.5469C6.625 18.2031 6.76562 17.9141 6.95312 17.6797C7.04688 17.5547 7.14062 17.4375 7.23438 17.3281C7.32812 17.2031 7.42188 17.0781 7.51562 16.9531C7.67188 16.7344 7.82812 16.5234 7.98438 16.3203C8.15625 16.1172 8.32031 15.9219 8.47656 15.7344C8.78906 15.3906 9.07812 14.9688 9.34375 14.4688C9.59375 14.2812 9.82031 14.0781 10.0234 13.8594C10.2266 13.6406 10.4219 13.4219 10.6094 13.2031C10.7188 13.0781 10.8203 12.9609 10.9141 12.8516C11.0234 12.7422 11.1328 12.6328 11.2422 12.5234C11.3516 12.4141 11.4531 12.3047 11.5469 12.1953C11.6562 12.0859 11.7656 11.9688 11.875 11.8438C12 11.75 12.1172 11.6484 12.2266 11.5391C12.3359 11.4297 12.4375 11.3281 12.5312 11.2344C12.75 10.9844 12.9688 10.7656 13.1875 10.5781C13.4062 10.3906 13.6406 10.2031 13.8906 10.0156C14.1094 9.92188 14.375 9.75 14.6875 9.5C14.8281 9.35938 14.9688 9.21875 15.1094 9.07812C15.25 8.9375 15.3828 8.78906 15.5078 8.63281C15.6328 8.47656 15.7656 8.33594 15.9062 8.21094C16.0469 8.07031 16.1875 7.9375 16.3281 7.8125C16.7656 7.375 17.2188 6.94531 17.6875 6.52344C18.1562 6.10156 18.6562 5.71875 19.1875 5.375C19.5 5.03125 19.875 4.74219 20.3125 4.50781C20.75 4.27344 21.1875 4.04688 21.625 3.82812C21.875 3.73438 22.0859 3.64844 22.2578 3.57031C22.4297 3.49219 22.625 3.39062 22.8438 3.26562C23.2031 3.04688 23.4531 2.92969 23.5938 2.91406C23.75 2.89844 23.875 2.82812 23.9688 2.70312C24.3594 2.70312 24.6875 2.64844 24.9531 2.53906C25.2188 2.42969 25.5312 2.42188 25.8906 2.51562C26 2.53125 26.1094 2.57031 26.2188 2.63281C26.3438 2.69531 26.4375 2.73438 26.5 2.75C27.0938 2.8125 27.5156 2.90625 27.7656 3.03125C28.0156 3.15625 28.2578 3.27344 28.4922 3.38281C28.7266 3.49219 29 3.5625 29.3125 3.59375Z" fill="#C7D2FE"/>
<path d="M29.6328 17.4297L30.0234 17.5469C30.0755 17.612 30.1016 17.6901 30.1016 17.7812C30.1016 17.8464 30.1406 17.9115 30.2188 17.9766C30.1667 18.2109 30.1211 18.4518 30.082 18.6992C30.043 18.9466 30.0234 19.1875 30.0234 19.4219C30.0234 19.513 30.056 19.6042 30.1211 19.6953C30.1862 19.7865 30.2188 19.8646 30.2188 19.9297C30.0885 20.2292 29.9909 20.4115 29.9258 20.4766C29.8607 20.5417 29.8281 20.6068 29.8281 20.6719C29.6979 20.724 29.6003 20.8021 29.5352 20.9062C29.4701 21.0104 29.3594 21.0625 29.2031 21.0625C29.151 21.1406 29.0924 21.1992 29.0273 21.2383C28.9492 21.2904 28.9036 21.362 28.8906 21.4531C28.4609 21.6354 27.9922 21.6224 27.4844 21.4141C27.3411 21.1667 27.1589 20.9974 26.9375 20.9062C26.599 20.4115 26.5859 19.8255 26.8984 19.1484C26.9505 19.0182 27.0091 18.8815 27.0742 18.7383C27.1393 18.5951 27.1979 18.4974 27.25 18.4453C27.5234 18.25 27.7318 18.1198 27.875 18.0547C27.9271 18.0286 27.9792 18.0026 28.0312 17.9766C28.0964 17.9375 28.1549 17.8984 28.207 17.8594C28.2982 17.7943 28.4349 17.7292 28.6172 17.6641C28.6953 17.638 28.7669 17.625 28.832 17.625C28.9362 17.625 29.0339 17.599 29.125 17.5469C29.1771 17.5339 29.2227 17.5208 29.2617 17.5078C29.3138 17.4948 29.3594 17.4818 29.3984 17.4688C29.5026 17.4427 29.5807 17.4297 29.6328 17.4297ZM23.7734 34.7344L23.9688 34.8125C24.2031 34.7083 24.4896 34.6693 24.8281 34.6953C25.1797 34.7214 25.4531 34.6693 25.6484 34.5391C25.7786 34.4349 25.8698 34.3568 25.9219 34.3047C26 34.2266 26.0911 34.2005 26.1953 34.2266C26.612 34.0703 26.9635 33.9141 27.25 33.7578C27.5495 33.6016 27.862 33.4844 28.1875 33.4062C28.3958 33.3281 28.5781 33.2109 28.7344 33.0547C29.2682 32.8854 29.7174 32.6445 30.082 32.332C30.4596 32.0195 30.8698 31.6875 31.3125 31.3359C31.6771 31.1276 31.9831 30.9453 32.2305 30.7891C32.4779 30.6328 32.7448 30.4375 33.0312 30.2031C33.0964 30.0599 33.168 29.9622 33.2461 29.9102C33.3112 29.8711 33.3828 29.7865 33.4609 29.6562C33.9297 29.6562 34.1901 29.8385 34.2422 30.2031C34.112 30.4896 33.9362 30.724 33.7148 30.9062C33.4805 31.1016 33.2786 31.3099 33.1094 31.5312C32.901 31.6615 32.7318 31.7786 32.6016 31.8828C32.4714 31.987 32.3411 32.1432 32.2109 32.3516C32.1979 32.3516 32.1198 32.4102 31.9766 32.5273C31.8464 32.6445 31.7682 32.7031 31.7422 32.7031C31.5339 32.9505 31.3776 33.1003 31.2734 33.1523C31.1693 33.2044 30.987 33.3411 30.7266 33.5625C30.5573 33.849 30.3229 34.0833 30.0234 34.2656C29.4635 34.7995 28.8711 35.2487 28.2461 35.6133C27.9206 35.7956 27.6146 35.9844 27.3281 36.1797C27.0417 36.362 26.7682 36.5443 26.5078 36.7266C26.3776 36.8047 26.2865 36.8763 26.2344 36.9414C26.1823 37.0065 26.0911 37.0911 25.9609 37.1953C25.8307 37.2995 25.6289 37.4036 25.3555 37.5078C25.082 37.612 24.8411 37.7031 24.6328 37.7812C24.4635 37.8854 24.3203 37.9635 24.2031 38.0156C23.6172 38.0417 23.1745 37.9505 22.875 37.7422C22.5365 37.5599 22.276 37.4167 22.0938 37.3125C21.9115 37.2083 21.7552 37.0391 21.625 36.8047C21.3255 36.6615 21.1497 36.4206 21.0977 36.082C21.0716 35.8997 21.0391 35.724 21 35.5547C20.9609 35.3854 20.9219 35.2161 20.8828 35.0469C20.8568 34.9167 20.8307 34.7669 20.8047 34.5977C20.7786 34.4284 20.7786 34.2526 20.8047 34.0703C20.8698 33.7708 20.9089 33.4648 20.9219 33.1523C20.9349 32.8659 21 32.5859 21.1172 32.3125C21.2344 32.0521 21.306 31.7656 21.332 31.4531C21.3581 31.1406 21.4297 30.8542 21.5469 30.5938C21.7161 30.3333 21.7878 30.1901 21.7617 30.1641C21.7487 30.151 21.7552 30.112 21.7812 30.0469L21.957 29.8125C21.9961 29.7604 22.0547 29.6693 22.1328 29.5391L22.3672 28.9531C22.4844 28.7318 22.6016 28.5495 22.7188 28.4062C22.8359 28.25 22.9401 28.0286 23.0312 27.7422C23.0964 27.5599 23.168 27.4167 23.2461 27.3125C23.2982 27.2474 23.3438 27.1823 23.3828 27.1172C23.4349 27.0391 23.487 26.9609 23.5391 26.8828C23.6042 26.7526 23.6693 26.5898 23.7344 26.3945C23.7604 26.3034 23.7865 26.2188 23.8125 26.1406C23.8516 26.0495 23.8906 25.9583 23.9297 25.8672C24.0078 25.6589 24.1055 25.4505 24.2227 25.2422C24.3398 25.0339 24.4635 24.8255 24.5938 24.6172C24.6979 24.4089 24.7891 24.2526 24.8672 24.1484C24.9453 24.0443 25.1016 23.9792 25.3359 23.9531C25.4531 23.9271 25.5703 23.9336 25.6875 23.9727C25.8307 24.0117 25.9609 24.0052 26.0781 23.9531C26.4167 23.7969 26.651 23.7188 26.7812 23.7188C26.9115 23.7188 27.0026 23.6797 27.0547 23.6016C27.3281 23.6146 27.5365 23.7057 27.6797 23.875C27.8229 24.0312 27.9792 24.1875 28.1484 24.3438C27.9922 25.099 27.8164 25.6784 27.6211 26.082C27.4258 26.4857 27.2109 26.9089 26.9766 27.3516C26.8464 27.5599 26.7161 27.7943 26.5859 28.0547C26.4557 28.3151 26.3385 28.5495 26.2344 28.7578C26.1042 29.0443 25.9674 29.2982 25.8242 29.5195C25.6549 29.7799 25.5312 30.0339 25.4531 30.2812L25.2773 30.6523C25.1992 30.8086 25.1406 30.9323 25.1016 31.0234C25.0755 31.1146 25.043 31.2057 25.0039 31.2969C24.9779 31.375 24.9388 31.4466 24.8867 31.5117C24.8346 31.5768 24.7891 31.6484 24.75 31.7266C24.7109 31.7917 24.6719 31.8568 24.6328 31.9219C24.5547 32.0781 24.4766 32.2344 24.3984 32.3906C24.3203 32.5469 24.2552 32.7161 24.2031 32.8984C24.0729 33.1849 23.9948 33.3737 23.9688 33.4648C23.9557 33.4909 23.9427 33.5234 23.9297 33.5625C23.9167 33.5885 23.9036 33.6146 23.8906 33.6406C23.8385 33.9271 23.7604 34.1615 23.6562 34.3438C23.5521 34.526 23.5911 34.6562 23.7734 34.7344ZM34.5547 32.1953C34.763 32.0651 34.9323 31.8958 35.0625 31.6875C35.1276 31.5833 35.1992 31.4792 35.2773 31.375C35.3555 31.2708 35.4401 31.1667 35.5312 31.0625C35.8698 30.6719 36.2344 30.3464 36.625 30.0859C36.8073 29.8125 37.0352 29.6107 37.3086 29.4805C37.582 29.3372 37.7969 29.1224 37.9531 28.8359C37.9922 28.7839 38.0378 28.7057 38.0898 28.6016C38.1419 28.4974 38.1875 28.4193 38.2266 28.3672C38.7214 27.6771 39.2552 27.1042 39.8281 26.6484C39.9062 26.5833 39.9844 26.5182 40.0625 26.4531C40.1406 26.388 40.2122 26.3229 40.2773 26.2578C40.3815 26.1536 40.5573 26.0234 40.8047 25.8672C40.9219 25.8021 41.0391 25.7305 41.1562 25.6523C41.2734 25.5612 41.3841 25.4635 41.4883 25.3594C41.6966 25.151 41.9375 24.9948 42.2109 24.8906C42.3802 24.8125 42.5495 24.7539 42.7188 24.7148C42.7969 24.6888 42.875 24.6693 42.9531 24.6562C43.0443 24.6302 43.1354 24.6042 43.2266 24.5781C43.4089 24.526 43.5716 24.4805 43.7148 24.4414C43.8581 24.4023 44.0208 24.4089 44.2031 24.4609C44.6198 24.6302 44.9323 24.9818 45.1406 25.5156C45.2188 25.7109 45.1732 26.1211 45.0039 26.7461C44.8477 27.3711 44.6589 28.0221 44.4375 28.6992C44.2161 29.3633 44.0599 29.8776 43.9688 30.2422C43.9167 30.4375 43.9036 30.5482 43.9297 30.5742C43.9557 30.6003 43.9688 30.6328 43.9688 30.6719C43.9167 30.8021 43.8776 30.9193 43.8516 31.0234C43.8255 31.1276 43.7995 31.2448 43.7734 31.375C43.7214 31.5833 43.6823 31.8633 43.6562 32.2148C43.6302 32.5664 43.6432 32.8464 43.6953 33.0547C43.9557 33.0417 44.1055 33.0156 44.1445 32.9766C44.1706 32.9505 44.2031 32.9375 44.2422 32.9375C44.3464 32.9115 44.431 32.9049 44.4961 32.918C44.5612 32.931 44.6458 32.9245 44.75 32.8984C45.2839 32.7552 45.7656 32.4688 46.1953 32.0391C46.4297 31.9349 46.651 31.8307 46.8594 31.7266C47.0807 31.6224 47.2891 31.5182 47.4844 31.4141C47.849 31.1536 48.1419 30.9648 48.3633 30.8477C48.5846 30.7305 48.9167 30.5677 49.3594 30.3594C49.5286 30.1641 49.7565 30.0013 50.043 29.8711C50.3034 29.7539 50.5573 29.5911 50.8047 29.3828C50.8828 29.3047 50.9479 29.2331 51 29.168C51.0781 29.0638 51.1562 29.0443 51.2344 29.1094C51.3646 29.2396 51.4492 29.3763 51.4883 29.5195C51.5273 29.6628 51.5339 29.7604 51.5078 29.8125C51.3125 30.0078 51.2018 30.1641 51.1758 30.2812C51.1497 30.3984 51.1172 30.4766 51.0781 30.5156C50.9479 30.6458 50.7526 30.763 50.4922 30.8672C50.2708 30.9583 50.1341 31.043 50.082 31.1211C50.0299 31.1992 49.9844 31.2578 49.9453 31.2969C49.8672 31.375 49.7956 31.4336 49.7305 31.4727C49.6654 31.5117 49.5938 31.5703 49.5156 31.6484C49.4635 31.7266 49.3919 31.7721 49.3008 31.7852L49.0469 31.8438C48.8906 31.974 48.7604 32.0911 48.6562 32.1953C48.5521 32.2995 48.4349 32.4167 48.3047 32.5469C48.1094 32.7422 47.9792 32.8919 47.9141 32.9961C47.862 33.0872 47.7188 33.2109 47.4844 33.3672L46.7031 33.8359C46.3385 34.0182 45.974 34.2396 45.6094 34.5C45.2448 34.7604 44.8802 35.0208 44.5156 35.2812C44.2812 35.4245 44.0143 35.5612 43.7148 35.6914C43.4414 35.8086 43.1875 35.9453 42.9531 36.1016C42.8359 36.1016 42.7643 36.0951 42.7383 36.082C42.6992 36.056 42.6276 36.0755 42.5234 36.1406C42.3932 36.0755 42.263 36.069 42.1328 36.1211C41.9896 36.1862 41.8594 36.1927 41.7422 36.1406C41.612 36.0365 41.5013 35.9518 41.4102 35.8867C41.332 35.8216 41.2669 35.776 41.2148 35.75C41.1367 35.6979 41.0651 35.6328 41 35.5547C40.9479 35.4245 40.9284 35.2812 40.9414 35.125C40.9544 34.9688 40.9219 34.8385 40.8438 34.7344C40.8438 34.1615 40.8633 33.6146 40.9023 33.0938C40.9414 32.5729 41.026 32.026 41.1562 31.4531C41.1823 31.2708 41.2474 30.9583 41.3516 30.5156C41.4557 30.0599 41.5404 29.6237 41.6055 29.207C41.6706 28.7904 41.651 28.5495 41.5469 28.4844C41.2604 28.6406 40.9674 28.875 40.668 29.1875C40.5247 29.3438 40.3815 29.487 40.2383 29.6172C40.0951 29.7474 39.9583 29.8646 39.8281 29.9688L39.2227 30.3984C39.1315 30.4635 39.0339 30.5352 38.9297 30.6133C38.8255 30.6784 38.7214 30.75 38.6172 30.8281C38.4349 30.9583 38.2786 31.0885 38.1484 31.2188C38.0182 31.349 37.875 31.5052 37.7188 31.6875C37.6276 31.7786 37.5365 31.8698 37.4453 31.9609C37.3672 32.0391 37.2891 32.1237 37.2109 32.2148C37.0547 32.3841 36.8724 32.5469 36.6641 32.7031C36.5339 32.8333 36.4362 32.918 36.3711 32.957C36.306 32.9961 36.2214 33.0677 36.1172 33.1719L35.7461 33.543C35.6289 33.6602 35.4792 33.7578 35.2969 33.8359C34.8802 34.3958 34.4115 34.9362 33.8906 35.457C33.3828 35.9779 32.9792 36.5052 32.6797 37.0391C32.3672 37.2995 32.0352 37.5273 31.6836 37.7227C31.332 37.918 30.9089 37.9375 30.4141 37.7812C30.1536 37.625 29.9844 37.4948 29.9062 37.3906C29.8281 37.2995 29.737 37.2214 29.6328 37.1562C29.6589 36.8698 29.6849 36.5964 29.7109 36.3359C29.737 36.0755 29.8151 35.8021 29.9453 35.5156L30.1797 35.125C30.3099 34.9036 30.3945 34.6432 30.4336 34.3438C30.4727 34.0312 30.5573 33.7578 30.6875 33.5234C30.8438 33.263 30.9414 33.0482 30.9805 32.8789C31.0195 32.7227 31.0781 32.5729 31.1562 32.4297C31.2214 32.2734 31.293 32.1497 31.3711 32.0586C31.4492 31.9674 31.5208 31.8438 31.5859 31.6875C31.651 31.5443 31.7422 31.3945 31.8594 31.2383C31.9766 31.082 32.0677 30.9323 32.1328 30.7891C32.2891 30.2292 32.4974 29.6562 32.7578 29.0703C32.8099 28.888 32.862 28.7122 32.9141 28.543C32.9661 28.3737 33.0312 28.2109 33.1094 28.0547C33.1745 27.9115 33.2396 27.7682 33.3047 27.625C33.3698 27.4818 33.4349 27.3451 33.5 27.2148C33.5651 27.0716 33.6302 26.9349 33.6953 26.8047C33.7604 26.6615 33.8255 26.5182 33.8906 26.375C33.9688 26.2188 34.0404 26.082 34.1055 25.9648C34.1706 25.8477 34.2552 25.724 34.3594 25.5938C34.3984 25.5286 34.4375 25.4635 34.4766 25.3984C34.5156 25.3333 34.5482 25.2682 34.5742 25.2031C34.6003 25.138 34.6328 25.0729 34.6719 25.0078C34.7109 24.9427 34.75 24.8776 34.7891 24.8125C34.8281 24.7474 34.8672 24.6823 34.9062 24.6172C34.9453 24.5391 34.9779 24.4544 35.0039 24.3633C35.056 24.194 35.1536 24.0312 35.2969 23.875C35.388 23.7708 35.4661 23.6732 35.5312 23.582C35.6094 23.4779 35.6745 23.3802 35.7266 23.2891C35.8177 23.1198 35.987 23.0026 36.2344 22.9375C36.4557 23.0417 36.6836 23.0026 36.918 22.8203C37.1654 22.625 37.3672 22.638 37.5234 22.8594C37.888 23.0938 38.1354 23.276 38.2656 23.4062C38.4219 23.5495 38.526 23.6927 38.5781 23.8359C38.7083 24.0703 38.7214 24.3112 38.6172 24.5586C38.513 24.806 38.3307 25.0208 38.0703 25.2031C37.9792 25.6068 37.7969 26.0234 37.5234 26.4531C37.3932 26.6484 37.2695 26.8438 37.1523 27.0391C37.0352 27.2214 36.9245 27.4036 36.8203 27.5859L36.5078 28.3672C36.3516 28.7318 36.1888 29.0964 36.0195 29.4609C35.8503 29.8255 35.6615 30.1771 35.4531 30.5156C35.2839 30.8672 35.1536 31.0951 35.0625 31.1992C34.9844 31.3034 34.9128 31.4076 34.8477 31.5117C34.7956 31.6029 34.6979 31.8307 34.5547 32.1953Z" fill="#A2ABFD"/>
<path d="M64.4062 31.6641C64.6146 31.6641 64.7578 31.7292 64.8359 31.8594C64.9141 31.9896 64.9987 32.1068 65.0898 32.2109C65.181 32.3281 65.3307 32.3672 65.5391 32.3281C65.7344 32.5104 65.8581 32.6536 65.9102 32.7578C65.9753 32.875 66.112 32.9401 66.3203 32.9531C66.5026 32.9661 66.724 33.0182 66.9844 33.1094C67.2448 33.2005 67.4661 33.2526 67.6484 33.2656C67.9349 33.2786 68.1953 33.2786 68.4297 33.2656C68.6641 33.2396 68.9375 33.2396 69.25 33.2656C69.3542 33.2786 69.4714 33.2917 69.6016 33.3047C69.7318 33.3177 69.8815 33.3307 70.0508 33.3438C70.3893 33.3568 70.5651 33.474 70.5781 33.6953C70.513 33.7734 70.4479 33.9427 70.3828 34.2031C70.2656 34.2812 70.1615 34.3919 70.0703 34.5352C69.9922 34.6393 69.875 34.724 69.7188 34.7891C69.5885 34.9193 69.4779 35.0234 69.3867 35.1016C69.3086 35.1797 69.2565 35.2318 69.2305 35.2578C69.2044 35.2839 69.1654 35.3099 69.1133 35.3359C69.0742 35.362 69.0286 35.388 68.9766 35.4141C68.7292 35.5443 68.5729 35.6029 68.5078 35.5898C68.4818 35.5768 68.4297 35.5833 68.3516 35.6094C68.2214 35.6224 68.0391 35.668 67.8047 35.7461C67.7135 35.7721 67.6289 35.7982 67.5508 35.8242C67.4727 35.8503 67.401 35.8698 67.3359 35.8828C67.2318 35.8958 67.1341 35.9023 67.043 35.9023C66.9518 35.9154 66.8672 35.9219 66.7891 35.9219C66.6198 35.9219 66.4766 35.9479 66.3594 36C66.151 35.974 65.9297 35.9674 65.6953 35.9805C65.4609 35.9935 65.2396 36.013 65.0312 36.0391C64.5625 36.0911 64.1393 36.026 63.7617 35.8438C63.3841 35.6615 63.0391 35.4661 62.7266 35.2578C62.5703 35.0495 62.4141 34.8411 62.2578 34.6328C62.1016 34.4245 61.9323 34.2292 61.75 34.0469C61.5938 33.6302 61.4115 33.3568 61.2031 33.2266C61.0729 32.9922 60.9753 32.7969 60.9102 32.6406C60.8451 32.4714 60.7474 32.3411 60.6172 32.25C60.4089 31.8073 60.2266 31.4232 60.0703 31.0977C59.9141 30.7721 59.7057 30.4922 59.4453 30.2578C59.263 30.349 59.1328 30.4401 59.0547 30.5312C58.612 30.6615 58.2474 30.8698 57.9609 31.1562C57.6875 31.2344 57.4206 31.3516 57.1602 31.5078C56.8737 31.6901 56.6068 31.8203 56.3594 31.8984C55.8125 32.3021 55.1875 32.4453 54.4844 32.3281C53.7812 32.224 53.1823 31.9896 52.6875 31.625C52.4792 31.2474 52.1276 30.987 51.6328 30.8438C51.5156 30.7005 51.4245 30.4792 51.3594 30.1797C51.2943 29.8802 51.2031 29.6589 51.0859 29.5156C51.0859 29.2552 51.0469 29.0599 50.9688 28.9297C50.9036 28.526 50.8385 28.2786 50.7734 28.1875C50.7083 28.1094 50.6432 27.9922 50.5781 27.8359C50.4349 27.6276 50.3047 27.3802 50.1875 27.0938C50.0573 26.8854 49.9596 26.7617 49.8945 26.7227C49.8294 26.6836 49.8229 26.625 49.875 26.5469C49.6276 25.6224 49.5495 24.4896 49.6406 23.1484C49.6797 22.9792 49.7122 22.8359 49.7383 22.7188C49.7643 22.6016 49.7839 22.5169 49.7969 22.4648C49.8099 22.3607 49.849 22.237 49.9141 22.0938C50.3828 20.0755 50.9688 18.1484 51.6719 16.3125C51.737 16.1432 51.8021 15.9805 51.8672 15.8242C51.9323 15.6549 51.9909 15.4857 52.043 15.3164C52.1471 15.0169 52.2839 14.7109 52.4531 14.3984C52.4922 14.3333 52.5312 14.2682 52.5703 14.2031C52.6094 14.125 52.6484 14.0469 52.6875 13.9688C52.7266 13.8906 52.7656 13.819 52.8047 13.7539C52.8438 13.6758 52.8828 13.6042 52.9219 13.5391C52.9609 13.4609 53 13.3893 53.0391 13.3242C53.0781 13.2461 53.1107 13.1745 53.1367 13.1094C53.1628 13.0443 53.1953 12.9792 53.2344 12.9141C53.2865 12.849 53.3385 12.7839 53.3906 12.7188C53.612 12.3281 53.8333 11.9896 54.0547 11.7031C54.0807 11.599 54.1263 11.5143 54.1914 11.4492C54.2695 11.3711 54.3151 11.2995 54.3281 11.2344C54.3672 11.1693 54.3997 11.0716 54.4258 10.9414C54.4518 10.8112 54.4844 10.7135 54.5234 10.6484C54.6016 10.4661 54.6992 10.2904 54.8164 10.1211C54.9336 9.95182 55.0182 9.76302 55.0703 9.55469C55.2526 9.39844 55.4089 9.25521 55.5391 9.125C55.6693 8.99479 55.7865 8.82552 55.8906 8.61719C56.4635 7.8099 57.0885 7.10026 57.7656 6.48828C58.4427 5.8763 59.1589 5.33594 59.9141 4.86719C60.1484 4.8151 60.3568 4.71745 60.5391 4.57422C60.7214 4.43099 60.8776 4.28125 61.0078 4.125C61.125 4.11198 61.2682 4.02083 61.4375 3.85156C61.8672 3.57812 62.2188 3.39583 62.4922 3.30469C62.7266 3.20052 62.9089 3.08333 63.0391 2.95312C63.5599 2.66667 64.1263 2.42578 64.7383 2.23047C65.3503 2.03516 65.9557 1.91146 66.5547 1.85938H66.9844C67.2057 1.96354 67.3294 2.00911 67.3555 1.99609C67.3815 1.98307 67.4271 1.98958 67.4922 2.01562C67.5964 2.04167 67.681 2.09375 67.7461 2.17188C67.8112 2.25 67.9089 2.28906 68.0391 2.28906C68.7161 3.09635 69.1849 3.94271 69.4453 4.82812C69.7057 5.71354 69.9141 6.63802 70.0703 7.60156C70.0573 7.91406 70.0508 8.23307 70.0508 8.55859C70.0638 8.88411 70.0833 9.21615 70.1094 9.55469C70.1615 10.2057 70.1484 10.8698 70.0703 11.5469C70.0573 11.6641 70.0443 11.7747 70.0312 11.8789C70.0182 11.9831 69.9987 12.0872 69.9727 12.1914C69.9596 12.2826 69.9401 12.3802 69.9141 12.4844C69.901 12.5885 69.888 12.6927 69.875 12.7969C69.8229 12.9661 69.7773 13.1745 69.7383 13.4219C69.6992 13.6302 69.6146 13.8385 69.4844 14.0469C69.4062 14.4115 69.2956 14.7565 69.1523 15.082C69.0091 15.4076 68.8464 15.7396 68.6641 16.0781C68.625 16.1302 68.5924 16.2083 68.5664 16.3125C68.5404 16.4427 68.5078 16.5339 68.4688 16.5859C68.4167 16.7422 68.3385 16.8984 68.2344 17.0547C68.0781 17.4323 67.9089 17.7643 67.7266 18.0508C67.5573 18.3372 67.4271 18.6172 67.3359 18.8906C67.0495 19.3854 66.8021 19.8281 66.5938 20.2188C66.3854 20.6094 66.1901 21.013 66.0078 21.4297L65.7734 21.957C65.7344 22.0482 65.6953 22.1393 65.6562 22.2305C65.6302 22.3086 65.6042 22.3932 65.5781 22.4844C65.526 22.5755 65.474 22.6667 65.4219 22.7578C65.3828 22.8359 65.3503 22.9206 65.3242 23.0117C65.2982 23.1029 65.2591 23.1875 65.207 23.2656C65.168 23.3307 65.1224 23.3958 65.0703 23.4609C64.875 23.7865 64.7708 23.9753 64.7578 24.0273C64.7448 24.1185 64.7057 24.2161 64.6406 24.3203C64.5625 24.4245 64.4974 24.5156 64.4453 24.5938C64.3932 24.6719 64.3542 24.737 64.3281 24.7891C64.3021 24.8411 64.276 24.8932 64.25 24.9453C64.224 24.9974 64.1979 25.056 64.1719 25.1211C64.1458 25.1732 64.1198 25.2318 64.0938 25.2969C64.0677 25.349 64.0417 25.401 64.0156 25.4531C63.7292 25.7396 63.4753 26.1432 63.2539 26.6641C63.0456 27.1719 62.7396 27.4974 62.3359 27.6406C62.2708 27.7448 62.1992 27.8229 62.1211 27.875C62.0299 27.9271 61.9844 28.0182 61.9844 28.1484C61.9844 28.2526 62.0365 28.3568 62.1406 28.4609C62.2188 28.5391 62.2969 28.6302 62.375 28.7344C62.4792 28.8646 62.5508 28.9622 62.5898 29.0273C62.6289 29.0924 62.7005 29.1641 62.8047 29.2422C62.8958 29.3594 62.9805 29.4766 63.0586 29.5938C63.1497 29.7109 63.2409 29.8346 63.332 29.9648C63.5143 30.2122 63.7031 30.4401 63.8984 30.6484C63.9245 30.7396 63.9505 30.8307 63.9766 30.9219C64.0156 31 64.0612 31.0781 64.1133 31.1562C64.1654 31.2344 64.2109 31.3125 64.25 31.3906C64.3021 31.4818 64.3542 31.5729 64.4062 31.6641ZM61.0859 25.0234C61.2161 24.8672 61.3203 24.7305 61.3984 24.6133C61.4635 24.5091 61.5286 24.4245 61.5938 24.3594C61.724 24.1771 61.8411 24.0078 61.9453 23.8516C62.0495 23.6953 62.1536 23.5 62.2578 23.2656C62.3229 23.1224 62.388 22.9987 62.4531 22.8945C62.5182 22.7904 62.5833 22.6667 62.6484 22.5234C62.7135 22.3932 62.7786 22.2174 62.8438 21.9961C62.8698 21.8919 62.8958 21.7943 62.9219 21.7031C62.9609 21.612 63 21.5208 63.0391 21.4297C63.2474 21.0651 63.3906 20.7786 63.4688 20.5703C63.5469 20.362 63.651 20.1536 63.7812 19.9453C63.7812 19.8542 63.8008 19.7826 63.8398 19.7305C63.8659 19.7044 63.8854 19.6719 63.8984 19.6328C63.9245 19.5807 63.9505 19.5286 63.9766 19.4766C64.0417 19.3594 64.1003 19.2357 64.1523 19.1055C64.2044 18.9753 64.2565 18.8451 64.3086 18.7148C64.4128 18.4154 64.5234 18.1745 64.6406 17.9922C64.6927 17.888 64.7383 17.7904 64.7773 17.6992C64.8294 17.6081 64.875 17.5169 64.9141 17.4258L65.1484 16.9375C65.1615 16.7422 65.2396 16.5729 65.3828 16.4297C65.526 16.0391 65.6823 15.6484 65.8516 15.2578C66.0339 14.8672 66.1901 14.4766 66.3203 14.0859C66.3724 13.9688 66.418 13.806 66.457 13.5977C66.4961 13.4154 66.5417 13.2656 66.5938 13.1484L66.7695 12.6992C66.8086 12.6081 66.8672 12.4583 66.9453 12.25C67.1016 11.7943 67.2188 11.3581 67.2969 10.9414C67.3359 10.7201 67.375 10.4987 67.4141 10.2773C67.4661 10.043 67.5182 9.80208 67.5703 9.55469C67.6745 9.11198 67.7526 8.66927 67.8047 8.22656C67.8568 7.78385 67.8177 7.35417 67.6875 6.9375C67.6615 6.84635 67.6289 6.76172 67.5898 6.68359C67.5638 6.59245 67.5378 6.51432 67.5117 6.44922L67.3359 6.03906C67.0755 5.70052 66.8216 5.51823 66.5742 5.49219C66.3268 5.46615 66.099 5.45312 65.8906 5.45312C65.7734 5.40104 65.6302 5.375 65.4609 5.375C65.3568 5.375 65.2005 5.36198 64.9922 5.33594C64.862 5.27083 64.7253 5.23177 64.582 5.21875C64.4518 5.19271 64.3151 5.15365 64.1719 5.10156C63.8854 5.16667 63.6966 5.23828 63.6055 5.31641C63.5143 5.39453 63.3776 5.46615 63.1953 5.53125C63.1042 5.66146 62.987 5.76562 62.8438 5.84375C62.7786 5.88281 62.7135 5.92839 62.6484 5.98047C62.5833 6.01953 62.5182 6.0651 62.4531 6.11719C62.2969 6.19531 62.1536 6.29948 62.0234 6.42969C61.8802 6.57292 61.737 6.65104 61.5938 6.66406C61.0729 7.13281 60.5326 7.60156 59.9727 8.07031C59.4128 8.53906 58.8594 8.99479 58.3125 9.4375C58.1823 9.63281 58.026 9.8151 57.8438 9.98438C57.6745 10.1406 57.5573 10.388 57.4922 10.7266C57.375 10.8438 57.2643 11.0065 57.1602 11.2148C57.056 11.4232 56.9453 11.5859 56.8281 11.7031C56.6589 12.0938 56.4766 12.4258 56.2812 12.6992C56.0859 12.9727 55.9036 13.3047 55.7344 13.6953C55.6562 13.8776 55.5846 13.9818 55.5195 14.0078C55.4544 14.0339 55.4219 14.099 55.4219 14.2031C55.3828 14.2422 55.3372 14.3008 55.2852 14.3789C55.2331 14.457 55.1875 14.5156 55.1484 14.5547C54.9922 14.9193 54.8424 15.2773 54.6992 15.6289C54.556 15.9805 54.4323 16.3516 54.3281 16.7422C54.276 16.9245 54.224 17.1068 54.1719 17.2891C54.1328 17.4714 54.1003 17.6536 54.0742 17.8359C54.0482 18.0182 54.0156 18.207 53.9766 18.4023C53.9375 18.5977 53.8984 18.7995 53.8594 19.0078C53.7943 19.2422 53.7292 19.4505 53.6641 19.6328C53.599 19.8021 53.5339 20.0234 53.4688 20.2969C53.4427 20.4401 53.4232 20.5898 53.4102 20.7461C53.3971 20.8893 53.3841 21.0326 53.3711 21.1758C53.3581 21.319 53.3451 21.4753 53.332 21.6445C53.319 21.8138 53.2995 21.9896 53.2734 22.1719C53.2604 22.4974 53.2214 22.849 53.1562 23.2266C53.1302 23.4089 53.1107 23.5846 53.0977 23.7539C53.0977 23.9102 53.1042 24.0599 53.1172 24.2031C53.1172 24.3724 53.1497 24.5417 53.2148 24.7109C53.2669 24.8672 53.2865 25.0495 53.2734 25.2578C53.3516 25.3359 53.4102 25.4401 53.4492 25.5703C53.4883 25.7005 53.5469 25.8177 53.625 25.9219C53.7943 25.8828 53.9635 25.8438 54.1328 25.8047C54.3151 25.7656 54.4974 25.7201 54.6797 25.668C54.862 25.6159 55.0443 25.5768 55.2266 25.5508C55.4089 25.5117 55.5911 25.4792 55.7734 25.4531C56.0208 25.4531 56.1901 25.4141 56.2812 25.3359C56.5417 25.2708 56.7305 25.2513 56.8477 25.2773C56.9258 25.2904 57.0625 25.2969 57.2578 25.2969C57.349 25.2969 57.4336 25.2969 57.5117 25.2969C57.6029 25.2969 57.6875 25.2904 57.7656 25.2773C57.8438 25.2643 57.9219 25.2643 58 25.2773C58.0911 25.2773 58.1823 25.2839 58.2734 25.2969C58.651 25.401 58.9896 25.5182 59.2891 25.6484C59.6146 25.8177 59.7904 25.9089 59.8164 25.9219C59.8815 25.9479 59.9531 25.987 60.0312 26.0391C60.2526 25.8828 60.4284 25.707 60.5586 25.5117C60.6888 25.3294 60.8646 25.1667 61.0859 25.0234ZM56.9844 28.1875C56.7109 28.2396 56.431 28.3177 56.1445 28.4219C55.8711 28.513 55.5781 28.5911 55.2656 28.6562C55.1745 28.7344 55.0443 28.793 54.875 28.832C54.7318 28.8711 54.6276 28.9427 54.5625 29.0469C54.8099 29.112 54.9987 29.1901 55.1289 29.2812C55.2591 29.3724 55.4479 29.4505 55.6953 29.5156C56.0339 29.4115 56.3268 29.2943 56.5742 29.1641C56.8216 29.0339 57.0885 28.9297 57.375 28.8516C57.5182 28.6953 57.668 28.5716 57.8242 28.4805C57.9935 28.3893 58.1042 28.2396 58.1562 28.0312C57.987 28.0443 57.7917 28.0768 57.5703 28.1289C57.401 28.168 57.2057 28.1875 56.9844 28.1875Z" fill="#C7D2FE"/>
<path d="M78.8047 34.7266L78.5703 33.8672C78.4141 33.5417 78.388 33.0339 78.4922 32.3438L78.6289 31.6602C78.6549 31.569 78.6745 31.4518 78.6875 31.3086C78.7135 31.1654 78.7396 30.9896 78.7656 30.7812C78.7917 30.5859 78.8177 30.3906 78.8438 30.1953C78.8828 29.987 78.9284 29.7786 78.9805 29.5703C79.0326 29.362 79.0716 29.1536 79.0977 28.9453C79.1367 28.737 79.1693 28.5286 79.1953 28.3203C79 28.6198 78.8112 28.9258 78.6289 29.2383C78.4466 29.5508 78.2708 29.8763 78.1016 30.2148C77.776 30.8529 77.3724 31.4062 76.8906 31.875C76.7865 32.1875 76.6562 32.3893 76.5 32.4805C76.3438 32.5586 76.1875 32.6367 76.0312 32.7148C75.875 32.793 75.7448 32.9818 75.6406 33.2812C75.5104 33.4115 75.3867 33.5482 75.2695 33.6914C75.1523 33.8346 75.0677 34.0104 75.0156 34.2188C74.8854 34.2708 74.7552 34.375 74.625 34.5312C74.3776 34.7786 74.2214 34.9089 74.1562 34.9219C74.0911 34.9349 74.026 34.974 73.9609 35.0391C73.7005 35.2474 73.4727 35.4036 73.2773 35.5078C73.082 35.612 72.8542 35.6771 72.5938 35.7031C72.3073 35.7552 71.9362 35.7943 71.4805 35.8203C71.2591 35.8333 71.0573 35.8464 70.875 35.8594C70.6927 35.8724 70.5365 35.8854 70.4062 35.8984C70.237 35.7682 70.1068 35.6901 70.0156 35.6641C69.9766 35.651 69.918 35.6315 69.8398 35.6055C69.7747 35.5794 69.6901 35.5469 69.5859 35.5078C69.2083 35.3516 69.026 35.2799 69.0391 35.293C69.026 35.2799 69.0065 35.2669 68.9805 35.2539C68.9414 35.2409 68.8958 35.2214 68.8438 35.1953C68.6354 35.0391 68.4922 34.9154 68.4141 34.8242C68.362 34.7591 68.2708 34.6615 68.1406 34.5312C67.7109 33.8672 67.4635 33.0078 67.3984 31.9531C67.3724 31.5885 67.4375 31.224 67.5938 30.8594C67.75 30.4948 67.8932 30.1693 68.0234 29.8828C68.1797 29.5573 68.349 29.2578 68.5312 28.9844C68.6354 28.8281 68.7331 28.6784 68.8242 28.5352C68.9023 28.3919 68.974 28.2552 69.0391 28.125C69.1953 27.8125 69.2214 27.6107 69.1172 27.5195C69.026 27.4154 69.0521 27.2135 69.1953 26.9141C69.2604 26.7057 69.3385 26.5234 69.4297 26.3672L69.7812 25.7422C70.0156 25.3255 70.263 24.9544 70.5234 24.6289C70.7578 24.3424 70.9531 23.9583 71.1094 23.4766C71.2396 23.112 71.4154 22.832 71.6367 22.6367C71.8581 22.4414 72.125 22.2656 72.4375 22.1094C72.5677 22.1615 72.7565 22.1419 73.0039 22.0508C73.2513 21.9596 73.4401 21.862 73.5703 21.7578C73.7526 21.7578 73.8958 21.7057 74 21.6016C74.2865 21.5495 74.4362 21.5495 74.4492 21.6016C74.4622 21.6536 74.4948 21.6797 74.5469 21.6797C74.599 21.6927 74.6706 21.6927 74.7617 21.6797C74.8529 21.6667 74.9245 21.6667 74.9766 21.6797C75.0677 21.9531 75.1328 22.1224 75.1719 22.1875C75.224 22.2526 75.25 22.3177 75.25 22.3828C75.25 22.4609 75.2435 22.5651 75.2305 22.6953C75.2174 22.8255 75.1979 22.9167 75.1719 22.9688C75.0286 23.1641 74.944 23.2878 74.918 23.3398L74.8594 23.4766C74.7812 23.5807 74.6901 23.7044 74.5859 23.8477C74.4948 23.9779 74.3906 24.1341 74.2734 24.3164L73.6484 25.2344C73.5052 25.4557 73.375 25.599 73.2578 25.6641C73.1146 25.7422 72.9974 25.8854 72.9062 26.0938C72.8542 26.1849 72.8151 26.2826 72.7891 26.3867C72.776 26.4779 72.737 26.5755 72.6719 26.6797C72.3724 27.3047 72.0339 27.9362 71.6562 28.5742C71.4609 28.8997 71.2721 29.2253 71.0898 29.5508C70.9206 29.8633 70.7578 30.1693 70.6016 30.4688C70.5885 30.5729 70.569 30.6771 70.543 30.7812C70.5169 30.8724 70.4909 30.9701 70.4648 31.0742C70.3997 31.2956 70.3672 31.4844 70.3672 31.6406C70.3672 31.6797 70.3542 31.8815 70.3281 32.2461C70.3021 32.6107 70.3151 32.8255 70.3672 32.8906C70.5234 33.112 70.6146 33.2096 70.6406 33.1836C70.6667 33.1576 70.6927 33.1641 70.7188 33.2031C70.8229 33.4635 70.8945 33.6133 70.9336 33.6523C70.9727 33.6914 71.0573 33.737 71.1875 33.7891C71.2917 33.8151 71.4414 33.7956 71.6367 33.7305C71.832 33.6654 71.9818 33.6068 72.0859 33.5547C72.3984 33.3984 72.6328 33.2357 72.7891 33.0664C72.9453 32.8971 73.1016 32.7214 73.2578 32.5391C73.6484 32.0703 74.0651 31.5234 74.5078 30.8984C74.9505 30.2734 75.3672 29.7266 75.7578 29.2578C75.901 28.9453 76.0898 28.6328 76.3242 28.3203C76.5716 27.9818 76.7604 27.6823 76.8906 27.4219L77.4375 26.3672C77.5156 26.224 77.6003 26.0677 77.6914 25.8984C77.7826 25.7292 77.8802 25.5469 77.9844 25.3516C78.1406 25.1302 78.3034 24.9284 78.4727 24.7461C78.6419 24.5638 78.7656 24.2969 78.8438 23.9453C78.9089 23.763 79.0065 23.5872 79.1367 23.418C79.2018 23.3268 79.2604 23.2487 79.3125 23.1836C79.3776 23.1055 79.4297 23.0339 79.4688 22.9688C79.6641 22.7865 79.7878 22.6432 79.8398 22.5391C79.8919 22.4349 79.9766 22.3438 80.0938 22.2656C80.3802 22.1875 80.6016 22.1289 80.7578 22.0898C80.9141 22.0508 81.1094 22.0573 81.3438 22.1094C81.5521 21.9792 81.7734 21.9141 82.0078 21.9141C82.125 21.9141 82.2357 21.9206 82.3398 21.9336C82.457 21.9336 82.5677 21.9401 82.6719 21.9531C82.6719 22.0833 82.7044 22.168 82.7695 22.207C82.8346 22.2461 82.8672 22.3177 82.8672 22.4219C82.9714 22.6562 82.9714 22.9427 82.8672 23.2812C82.75 23.6589 82.6849 23.9974 82.6719 24.2969C82.6068 24.5703 82.5091 24.8112 82.3789 25.0195C82.2357 25.2539 82.125 25.5078 82.0469 25.7812C81.9948 25.9766 81.9492 26.1328 81.9102 26.25C81.8841 26.3672 81.8646 26.4453 81.8516 26.4844L81.7344 26.9141C81.6823 27.1484 81.6302 27.3763 81.5781 27.5977C81.526 27.806 81.474 28.0143 81.4219 28.2227C81.3177 28.6393 81.2396 29.1016 81.1875 29.6094C81.1875 29.7396 81.168 29.8763 81.1289 30.0195C81.0898 30.1497 81.0703 30.2734 81.0703 30.3906C81.0703 30.5208 81.0768 30.6771 81.0898 30.8594C81.1029 31.0417 81.1745 31.1589 81.3047 31.2109C81.4479 31.263 81.5716 31.25 81.6758 31.1719C81.806 31.0677 81.9427 30.9766 82.0859 30.8984C82.1771 30.8333 82.3073 30.7161 82.4766 30.5469C82.6458 30.3776 82.776 30.2604 82.8672 30.1953C82.9974 30.0651 83.1406 29.9609 83.2969 29.8828C83.4531 29.8047 83.5964 29.7005 83.7266 29.5703C83.9349 29.388 84.1367 29.2057 84.332 29.0234C84.5404 28.8281 84.7357 28.6328 84.918 28.4375C85.3086 28.0339 85.7188 27.7083 86.1484 27.4609C86.5651 27.0182 86.9883 26.6081 87.418 26.2305C87.8477 25.8529 88.3359 25.5339 88.8828 25.2734C89.0911 25.612 89.1432 25.8919 89.0391 26.1133C88.9349 26.3346 88.8047 26.5495 88.6484 26.7578C88.5833 26.8229 88.4922 26.888 88.375 26.9531C88.2318 27.0312 88.1276 27.0964 88.0625 27.1484L87.8672 27.3438C87.7891 27.4219 87.724 27.4609 87.6719 27.4609C87.6719 27.5651 87.6393 27.6497 87.5742 27.7148L87.3984 27.8906C87.2292 28.151 87.0469 28.3984 86.8516 28.6328C86.6693 28.8542 86.474 29.069 86.2656 29.2773C86.0573 29.4857 85.849 29.694 85.6406 29.9023C85.4453 30.0977 85.25 30.2995 85.0547 30.5078C84.8724 30.5729 84.7617 30.6576 84.7227 30.7617C84.6836 30.8919 84.599 31.0026 84.4688 31.0938C84.4167 31.1589 84.3646 31.2174 84.3125 31.2695C84.2604 31.3216 84.2083 31.3737 84.1562 31.4258C84.1042 31.4779 84.0521 31.5299 84 31.582C83.9479 31.6341 83.8958 31.6927 83.8438 31.7578C83.6875 31.9271 83.5508 32.1029 83.4336 32.2852C83.3164 32.4544 83.1536 32.6172 82.9453 32.7734C82.8151 32.9036 82.7174 33.0404 82.6523 33.1836C82.6003 33.3138 82.5026 33.4505 82.3594 33.5938C82.151 33.8021 82.0013 33.8997 81.9102 33.8867C81.832 33.8737 81.7604 33.9974 81.6953 34.2578C81.487 34.4141 81.3698 34.5247 81.3438 34.5898C81.3307 34.6419 81.2917 34.6615 81.2266 34.6484C81.1615 34.6745 81.0703 34.694 80.9531 34.707C80.8229 34.7201 80.7578 34.7526 80.7578 34.8047C80.5885 34.8828 80.4518 34.9609 80.3477 35.0391C80.2435 35.1302 80.1198 35.1823 79.9766 35.1953C79.638 35.2474 79.3971 35.2279 79.2539 35.1367C79.1107 35.0456 78.9609 34.9089 78.8047 34.7266ZM86.6172 26.3672C86.7865 26.276 86.9948 26.0807 87.2422 25.7812C87.4896 25.4688 87.7305 25.1693 87.9648 24.8828C88.1992 24.5833 88.375 24.4141 88.4922 24.375C88.5703 24.2448 88.6419 24.1341 88.707 24.043C88.7721 23.9518 88.8698 23.8672 89 23.7891C89.2083 23.4115 89.4818 23.0924 89.8203 22.832C90.1719 22.5586 90.4974 22.2656 90.7969 21.9531C91.0443 21.849 91.2917 21.7318 91.5391 21.6016C91.7995 21.4714 92.0534 21.3216 92.3008 21.1523C92.8086 20.8138 93.375 20.638 94 20.625C94.2865 20.7552 94.5664 20.7943 94.8398 20.7422C95.1003 20.6901 95.3542 20.7552 95.6016 20.9375C95.7448 21.1849 95.862 21.3346 95.9531 21.3867C96.0443 21.4388 96.1224 21.5104 96.1875 21.6016C96.2917 21.9271 96.3698 22.1419 96.4219 22.2461C96.487 22.3503 96.526 22.4609 96.5391 22.5781C96.5521 22.7734 96.5651 22.9427 96.5781 23.0859C96.5911 23.2161 96.6042 23.3268 96.6172 23.418C96.6302 23.5872 96.6302 23.75 96.6172 23.9062C96.5391 24.5703 96.4089 25.2344 96.2266 25.8984C96.2005 25.9766 96.1745 26.0547 96.1484 26.1328C96.1224 26.2109 96.0964 26.2956 96.0703 26.3867C96.0182 26.556 95.9531 26.7057 95.875 26.8359C95.6797 27.0833 95.543 27.2852 95.4648 27.4414C95.3477 27.6497 95.263 27.7865 95.2109 27.8516C95.0547 28.0078 94.9049 28.151 94.7617 28.2812C94.6315 28.4115 94.5078 28.5286 94.3906 28.6328C94.2734 28.6979 94.1562 28.7695 94.0391 28.8477C93.9219 28.9128 93.8047 28.9844 93.6875 29.0625C93.4661 29.2057 93.2057 29.3099 92.9062 29.375L92.5547 29.5898C92.4375 29.668 92.3073 29.7135 92.1641 29.7266C91.9297 29.8958 91.6693 30.0326 91.3828 30.1367C91.2526 30.1888 91.1159 30.2409 90.9727 30.293C90.8424 30.3451 90.7057 30.4036 90.5625 30.4688C90.3672 30.5469 90.1979 30.638 90.0547 30.7422C89.9115 30.8464 89.7292 30.9505 89.5078 31.0547C89.3906 31.0938 89.2018 31.1393 88.9414 31.1914C88.694 31.2305 88.5182 31.276 88.4141 31.3281C88.5443 31.5885 88.5964 31.9141 88.5703 32.3047C88.5573 32.6693 88.6224 32.9948 88.7656 33.2812C89.1042 33.3594 89.4753 33.418 89.8789 33.457C90.2826 33.4961 90.6667 33.4896 91.0312 33.4375C91.0964 33.4245 91.1615 33.4049 91.2266 33.3789C91.3047 33.3529 91.3828 33.3268 91.4609 33.3008C91.5391 33.2747 91.6172 33.2487 91.6953 33.2227C91.7734 33.1966 91.8516 33.1771 91.9297 33.1641C92.2161 33.112 92.4961 33.0469 92.7695 32.9688C93.043 32.8906 93.2839 32.7865 93.4922 32.6562C94.2474 32.3958 94.9766 32.0443 95.6797 31.6016C96.3828 31.1589 96.9948 30.6771 97.5156 30.1562C97.8281 29.9479 98.1732 29.6615 98.5508 29.2969C98.9284 28.9323 99.2214 28.5938 99.4297 28.2812C99.8203 27.8646 100.165 27.5391 100.465 27.3047C100.764 27.0703 101.044 26.9661 101.305 26.9922C101.513 26.9922 101.715 27.1159 101.91 27.3633C102.105 27.6107 102.086 27.8776 101.852 28.1641C101.604 28.3203 101.331 28.5547 101.031 28.8672C100.745 29.1797 100.445 29.401 100.133 29.5312C99.9115 29.6745 99.6185 29.9609 99.2539 30.3906C98.9023 30.7943 98.6094 31.1068 98.375 31.3281C98.3229 31.3802 98.2643 31.4388 98.1992 31.5039C98.1341 31.569 98.056 31.6341 97.9648 31.6992C97.7956 31.8294 97.6589 31.9661 97.5547 32.1094C97.151 32.4479 96.7604 32.7344 96.3828 32.9688C96.2396 32.9167 96.1224 32.9427 96.0312 33.0469C95.9141 33.1901 95.8099 33.2943 95.7188 33.3594C95.6797 33.3854 95.6406 33.4115 95.6016 33.4375C95.5625 33.4635 95.5169 33.4896 95.4648 33.5156C95.4128 33.5417 95.3672 33.5677 95.3281 33.5938C95.2891 33.6198 95.25 33.6458 95.2109 33.6719C95.0026 33.8542 94.7747 34.0365 94.5273 34.2188C94.2799 34.401 94.026 34.5573 93.7656 34.6875C93.5052 34.8438 93.2448 34.987 92.9844 35.1172C92.724 35.2604 92.4635 35.3841 92.2031 35.4883C91.9427 35.5924 91.6823 35.7161 91.4219 35.8594C91.1745 36.0026 90.9271 36.1589 90.6797 36.3281L90.25 36.3867C90.1849 36.3997 90.1198 36.4062 90.0547 36.4062C89.9896 36.4193 89.9245 36.4323 89.8594 36.4453C89.7161 36.4974 89.5794 36.5234 89.4492 36.5234C89.319 36.5234 89.1562 36.4974 88.9609 36.4453C88.1016 36.2109 87.3984 35.7943 86.8516 35.1953C86.7734 35.1172 86.6888 35.0456 86.5977 34.9805C86.5195 34.9023 86.4349 34.8307 86.3438 34.7656C86.1354 34.6094 85.9922 34.4661 85.9141 34.3359C85.7969 34.1406 85.6797 33.8346 85.5625 33.418C85.4323 33.0013 85.3216 32.5781 85.2305 32.1484C85.1393 31.7057 85.0938 31.3672 85.0938 31.1328C85.1719 30.9766 85.2565 30.7096 85.3477 30.332C85.4388 29.9414 85.5169 29.5573 85.582 29.1797C85.6471 28.7891 85.6797 28.5156 85.6797 28.3594C85.7318 28.3073 85.8359 28.138 85.9922 27.8516C86.1354 27.5521 86.2721 27.2526 86.4023 26.9531C86.5456 26.6406 86.6172 26.4453 86.6172 26.3672ZM92.9062 23.8672C92.724 24.1016 92.5417 24.3229 92.3594 24.5312C92.1771 24.7396 91.9688 24.9349 91.7344 25.1172C91.5781 25.4036 91.3958 25.6641 91.1875 25.8984C90.9792 26.1328 90.7708 26.3542 90.5625 26.5625C90.4583 26.7708 90.3411 26.9336 90.2109 27.0508C90.0807 27.168 89.9375 27.2917 89.7812 27.4219C89.612 27.7083 89.4036 27.9818 89.1562 28.2422C88.9089 28.5026 88.8568 28.8021 89 29.1406C89.2865 29.1927 89.5729 29.1536 89.8594 29.0234C90.1458 28.8932 90.3932 28.776 90.6016 28.6719C90.7057 28.6068 90.8099 28.5482 90.9141 28.4961C91.0312 28.444 91.1419 28.3919 91.2461 28.3398C91.3503 28.2878 91.4544 28.2357 91.5586 28.1836C91.6628 28.1315 91.7604 28.0729 91.8516 28.0078L92.8672 26.9922C93.0234 26.849 93.1797 26.6797 93.3359 26.4844C93.401 26.3932 93.4661 26.3021 93.5312 26.2109C93.6094 26.1068 93.6875 26.0026 93.7656 25.8984C93.8307 25.612 93.9349 25.3451 94.0781 25.0977C94.2344 24.8372 94.2995 24.5703 94.2734 24.2969C94.2604 24.1797 94.2148 24.043 94.1367 23.8867C94.0586 23.7305 94.013 23.6068 94 23.5156C93.7266 23.5156 93.5247 23.5612 93.3945 23.6523C93.3294 23.7044 93.2513 23.75 93.1602 23.7891C93.082 23.8151 92.9974 23.8411 92.9062 23.8672Z" fill="#9DA6FF"/>
</g>
<defs>
<clipPath id="clip0_47_2">
<rect width="105" height="42" fill="white"/>
</clipPath>
</defs>
</svg>
